<?xml version="1.0" encoding="utf-8"?>
<!-- Generator: Adobe Illustrator 24.0.2, SVG Export Plug-In . SVG Version: 6.00 Build 0)  -->
<svg version="1.1" id="Calque_1" xmlns="http://www.w3.org/2000/svg" xmlns:xlink="http://www.w3.org/1999/xlink" x="0px" y="0px"
	 viewBox="0 0 22.1 22.1" style="enable-background:new 0 0 22.1 22.1;" xml:space="preserve">
<style type="text/css">
	.st0{fill:#2D4B73;}
</style>
<path class="st0" d="M11.9,21.4c0,0,6.9-6.9,9.6-9.6c0.2-0.2,0.3-0.5,0.3-0.8s-0.1-0.6-0.3-0.8c-2.7-2.7-9.6-9.6-9.6-9.6
	c-0.2-0.2-0.5-0.3-0.8-0.3c-0.3,0-0.6,0.1-0.8,0.3c-0.4,0.4-0.5,1.2,0,1.6l7.6,7.6H1.5c-0.6,0-1.1,0.5-1.1,1.1s0.5,1.1,1.1,1.1h16.4
	l-7.6,7.6c-0.4,0.4-0.4,1.2,0,1.6c0.2,0.2,0.5,0.3,0.8,0.3C11.4,21.8,11.7,21.7,11.9,21.4z"/>
</svg>
