<?xml version="1.0" encoding="utf-8"?>
<!-- Generator: Adobe Illustrator 24.0.2, SVG Export Plug-In . SVG Version: 6.00 Build 0)  -->
<svg version="1.1" id="Calque_1" xmlns="http://www.w3.org/2000/svg" xmlns:xlink="http://www.w3.org/1999/xlink" x="0px" y="0px"
	 viewBox="0 0 86.9 24" style="enable-background:new 0 0 86.9 24;" xml:space="preserve">
<path d="M13.2,8.2c0-0.1,0.3-0.1,0.4-0.1C13.6,8.2,13.4,8.6,13.2,8.2z M11.1,5.2l0.1,0c0.1,0.1-0.1,0.1,0,0.1c0.1,0.2,0,0.2,0,0.3
	c0,0.1-0.1,0-0.1,0.1c-0.1,0.1,0.3,0.1,0.3,0.1c0,0-0.4,0.1-0.3,0.2c0.1,0.1,0.8-0.2,0.7-0.2c0.2-0.1,0-0.1-0.1-0.2
	c0-0.2-0.1-0.5-0.2-0.7l0.1-0.1C11.2,4.6,11.1,5.2,11.1,5.2z M23.8,12c0,6.5-5.3,11.8-11.8,11.8C5.5,23.8,0.3,18.5,0.3,12
	S5.5,0.2,12,0.2C18.5,0.2,23.8,5.5,23.8,12z M15.7,6.7c0-0.1-0.2-0.3-0.4,0c-0.1,0.2-0.1,0.4-0.2,0.5c-0.1,0.2,0.6,0.3,0.6,0.2
	c0-0.3,0.7-0.1,0.9,0c0.2,0.1,0.6-0.2,0.2-0.4c-0.3-0.1-0.5-0.3-0.6-0.5c0,0,0.2-0.2,0.1-0.2C16.1,6.4,15.7,7.1,15.7,6.7z M21.8,12
	c0-1-0.2-2-0.3-2.6c-0.1-0.2-0.2-0.3-0.4-0.4c-0.3-0.1-1.3,0.6-1.5,0.2c-0.1-0.2-0.3,0.1-0.6,0c-0.1-0.1-0.4-0.5-0.6-0.5
	C18.2,9,19,9.8,19.2,9.9c0.2-0.1,0.8-0.5,1,0c0.3,0.8-0.7,1.7-1.2,2.1c-0.8,0.7-0.6-0.4-1.1-0.8c-0.3-0.2-0.3-0.6-0.5-0.8
	c-0.1-0.1-0.7-0.7-0.7-0.8l0,0.2c-0.1,0.1-0.3-0.3-0.3-0.3c0,0.3,0.5,0.7,0.6,1c0.3,0.4,0.4,1,0.7,1.3c0.2,0.2,0.8,0.9,1,0.9
	c0.2,0,0.8-0.4,0.9-0.4c0.6,0.1-1.5,3.1-1.7,3.5C17.7,16,18,16.7,18,17.1c0,0.4-0.4,0.6-0.7,0.8c-0.3,0.2-0.3,0.7-0.5,0.9
	c-0.5,0.3-0.9,1.3-1.6,1.3c-0.2,0-1.1,0.4-1.2,0c-0.1-0.3-0.2-0.4-0.3-0.7c-0.1-0.2,0-0.5-0.2-0.7c-0.1-0.1-0.5-0.5-0.5-0.7
	c0-0.2,0.1-0.6,0.3-0.7c0.2-0.1,0-0.4,0-0.6c0-0.3-0.3-0.6-0.5-0.8c-0.4-0.3-0.2-0.5-0.1-0.9c0-0.2-0.1-0.5-0.4-0.4
	c-0.6,0.2-0.4-0.4-0.8-0.4c-0.3,0-0.5,0.2-0.8,0.3c-0.3,0.1-0.7-0.1-1-0.1c-1.4-0.2-1.8-1.8-1.5-2.9c0-0.2-0.1-0.5,0-0.7
	c0.2-0.3,0.5-0.7,0.7-1C9,9.6,9.2,9.6,9.3,9.5C9.6,9.4,9.6,9,9.9,8.8c0.4-0.3,0.9-0.3,1.4-0.4c0.3,0,1.3-0.3,1.5-0.1
	c0,0,0.2,0.6,0,0.6c0.4,0,1,0.7,1.4,0.6c0.2-0.1,0.1-0.7,0.6-0.4c0.3,0.2,1.4,0.3,1.6,0.1c0.1-0.1,0.2-0.9,0.1-1
	c0.1,0.1-0.6,0.1-0.7,0.1c-0.1,0-0.2,0.1-0.4,0c0.1,0.1-0.6-0.3-0.2-0.7c-0.2,0.1-0.3,0-0.5,0.1c-0.1,0.1,0.1,0.2-0.1,0.3
	c-0.3,0.1-0.5-0.5-0.6-0.6c-0.1-0.1-1-0.7-0.8-0.3l0.8,0.8c0,0-0.2-0.3-0.2-0.1c0.1-0.1,0,0.6-0.1,0.3c-0.1-0.1,0.1-0.1,0-0.3
	c0-0.1-0.2-0.2-0.3-0.2c-0.1-0.2-0.4-0.5-0.6-0.6c0,0-0.7,0.1-0.8,0.1c-0.1,0.1-0.1,0.2-0.2,0.3c-0.1,0.1-0.3,0.1-0.4,0.2L11.2,8
	c-0.1,0.1-0.7,0.3-0.8,0.3c0-0.1-0.5-0.2-0.4-0.3c0-0.2,0.2-0.7,0.2-0.9c0-0.2,1.1,0.3,1.1-0.2c0-0.2,0-0.5-0.3-0.5
	c0.1,0,0.7-0.2,0.8-0.4c0.1-0.2,0.5-0.4,0.7-0.4c0.3,0,0.2-0.4,0.3-0.6c0.1,0.1-0.1,0.4,0.1,0.5c0-0.1,0.4,0.1,0.5,0
	c0.1-0.1,0.7,0,0.6-0.3C13.8,5,14,5.1,14.1,5c0,0,0.3-0.6,0.4-0.4c0-0.2-0.4,0.1-0.5,0.1c-0.3,0-0.2-0.5-0.1-0.7
	c0.1-0.1-0.2-0.3-0.2,0c0,0.3-0.3,0.6-0.2,1c0.1,0.6-0.7-0.2-0.8-0.1c-0.3,0.2-0.5-0.2-0.4-0.4c0.1-0.2,0.5-0.2,0.6-0.5
	c0.1-0.2,0.2-0.4,0.4-0.5c0.5-0.4,0.7-0.1,1.2,0c0.5,0,0.2,0.1,0.1,0.3C14.5,4,14.9,4,15,3.9c0.1-0.1,0.2-0.3,0.3-0.5
	c0.1-0.2,0.9-0.2,0.3-0.5c-0.4-0.2-2-0.7-3-0.7c-0.2,0-0.4,0.3-0.6,0.4c-0.3,0.3-1.2,0.9-1.7,0.7C9.8,3.1,8.7,4,8.5,4
	c-0.1,0,0-0.6,0.4-0.7c-0.1,0,1.2-0.7,1.2-0.8c0-0.2-2.7,0.8-2.6,1c0.1,0.1,0.3,0.1,0,0.3C7.2,3.9,7,4.5,6.9,4.5
	C6.4,4.7,6.3,4.1,5.8,4.9L4.9,5.3c-1.3,1.4-2.2,3.1-2.5,5.1c0,0.1,0.3,0.2,0.4,0.3c0.1,0.1,0.1,0.7,0.2,0.9c0.1,0.5,0.5,0.7,0.7,1.2
	C3.8,12.9,4,13.6,4,13.8c0.1-0.2,1,0.8,1.2,1c0.4,0.5,0.7,1.1,0.1,1.5c-0.2,0.2,0.3,1.1,0,1.3l-0.4,0.1c-0.3,0.2-0.2,0.7,0,1
	c1.8,1.9,4.3,3,7.1,3C17.5,21.8,21.8,17.4,21.8,12z M10.6,5.8c0.1-0.1,0.3-0.1,0.3-0.2c0-0.1,0,0,0.1-0.1c0-0.1-0.1-0.1-0.1-0.1
	c-0.1,0-0.1,0.1-0.1,0.1l-0.1,0l-0.1,0.1l0,0L10.6,5.8C10.4,5.8,10.5,5.8,10.6,5.8z"/>
<path d="M32.5,16.8v3c-1,0.5-1.9,0.7-2.6,0.7c-1.5,0-2.8-0.5-3.8-1.5s-1.5-2.2-1.5-3.7c0-1.5,0.5-2.8,1.4-3.8s2.1-1.5,3.6-1.5
	c1,0,2,0.2,2.9,0.7v2.8c-0.9-0.4-1.7-0.6-2.4-0.6c-0.7,0-1.2,0.2-1.6,0.6s-0.6,1-0.6,1.6c0,0.7,0.2,1.2,0.6,1.6s0.9,0.6,1.6,0.6
	C30.8,17.4,31.5,17.2,32.5,16.8z"/>
<path d="M34,4.6h3v6.7c0.5-0.5,1.1-0.8,1.5-1s1-0.3,1.6-0.3c1.1,0,1.9,0.4,2.5,1.1s0.9,1.8,0.9,3.2v5.9h-3v-5.4
	c0-0.6-0.2-1.2-0.5-1.6s-0.7-0.7-1.2-0.7c-0.6,0-1.1,0.3-1.4,0.8s-0.4,1.3-0.4,2.4v4.6h-3V4.6z"/>
<path d="M54.8,15.9h-7.2c0,0.6,0.3,1.2,0.6,1.6s0.8,0.6,1.4,0.6c0.9,0,1.6-0.4,2.2-1.3l2.8,0.9c-1,1.8-2.6,2.7-4.8,2.7
	c-1.6,0-2.8-0.5-3.8-1.4s-1.4-2.3-1.4-3.9c0-1.5,0.5-2.7,1.5-3.7s2.2-1.5,3.7-1.5c1.5,0,2.7,0.5,3.6,1.6c1,1,1.5,2.3,1.5,3.9V15.9z
	 M47.7,13.9h4.1c-0.3-1.3-0.9-1.9-1.9-1.9c-0.6,0-1.1,0.2-1.4,0.5C48,12.9,47.8,13.3,47.7,13.9z"/>
<path d="M63.3,11.6l-2,1.2c-0.6-0.6-1.1-0.9-1.6-0.9c-0.3,0-0.5,0.1-0.6,0.2s-0.3,0.3-0.3,0.5c0,0.3,0.1,0.6,0.3,0.7
	c0.2,0.1,0.8,0.4,1.7,0.7c0.9,0.3,1.6,0.7,2.1,1.2s0.8,1.2,0.8,2c0,0.9-0.4,1.6-1.2,2.2s-1.7,0.9-2.8,0.9c-0.7,0-1.5-0.2-2.2-0.6
	s-1.4-1-1.9-1.9l2.4-1.1c0.5,0.9,1.1,1.4,1.7,1.4c0.3,0,0.5-0.1,0.7-0.3c0.2-0.2,0.3-0.4,0.3-0.6c0-0.3-0.1-0.5-0.4-0.6
	c-0.2-0.1-0.4-0.2-0.5-0.2c0-0.1-0.3-0.2-0.8-0.3c-2-0.7-3-1.7-3-3.2c0-0.9,0.4-1.6,1.1-2.2s1.7-0.8,2.8-0.8
	C61,10,62.2,10.5,63.3,11.6z"/>
<path d="M65,6.7h3v3.5h1.4v2.8H68v7.3h-3v-7.3h-1.1v-2.8H65V6.7z"/>
<path d="M73,10.2v1.5h0c0.3-0.5,0.6-0.9,1-1.2s0.8-0.4,1.1-0.4c0.2,0,0.4,0,0.6,0v3.3c-0.2,0-0.5-0.1-0.7-0.1
	c-0.6,0-1.1,0.2-1.4,0.7S73,15,73,15.8v4.5h-3V10.2H73z"/>
<path d="M83.4,20.3v-1.7h0c-0.5,0.7-0.9,1.2-1.4,1.5s-1.1,0.5-1.8,0.5c-1.2,0-2.2-0.5-3-1.5S76,16.7,76,15.2c0-1.4,0.4-2.7,1.3-3.7
	s1.9-1.5,3.1-1.5c0.6,0,1.1,0.1,1.6,0.4s0.9,0.7,1.5,1.2v-1.4h3v10.1H83.4z M81.2,13c-0.6,0-1.1,0.2-1.5,0.7s-0.6,1.1-0.6,1.8
	c0,0.7,0.2,1.2,0.6,1.6s0.9,0.6,1.5,0.6c0.6,0,1.1-0.2,1.5-0.7s0.6-1,0.6-1.7c0-0.6-0.2-1.2-0.6-1.6S81.8,13,81.2,13z"/>
</svg>
